:version 1.10
:name ASF
:units
  mass 1
  length 1
  angle deg
:documentation
  ASF file generated by Kaydara
:root
  axis xyz
  order  tx ty tz rx ry rz
  position 0 0 0
  orientation 0 0 0
:bonedata
  begin
    id 1
    name RightUpLegDummy
    direction -0.718183 -0.695806 0.00816078
    length 4.904
    axis 0 0 0 xyz
  end
  begin
    id 2
    name RightUpLeg
    direction 3.53989e-006 -0.995788 0.0916897
    length 17.4976
    axis -3.49089 -0.000906621 0.000287158 xyz
    dof rx ry rz
  end
  begin
    id 3
    name RightLeg
    direction 0.00371093 -0.995096 -0.0988418
    length 16.5821
    axis 3.68512 0.0193738 -0.131023 xyz
    dof rx ry rz
  end
  begin
    id 4
    name RightFoot
    direction 0.000791514 -0.46099 0.887405
    length 3.77069
    axis 4.84075e-005 -0.120479 -0.188788 xyz
    dof rx ry rz
  end
  begin
    id 5
    name RightToes
    direction 0.00124746 -0.014064 0.9999
    length 3.85082
    axis 0.00048216 0.542163 -0.142577 xyz
    dof rx ry rz
  end
  begin
    id 6
    name SpineDummy
    direction 8.36599e-015 1 5.97571e-016
    length 4.6813
    axis 0 0 0 xyz
  end
  begin
    id 7
    name Spine
    direction -4.63632e-008 0.999988 0.00495137
    length 10.1015
    axis -0.00138897 0.000121419 3.25764e-006 xyz
    dof rx ry rz
  end
  begin
    id 8
    name Spine1
    direction 0 0 0
    length 0
    axis -0.00138896 0.000121452 2.39764e-006 xyz
    dof rx ry rz
  end
  begin
    id 9
    name HEadDummy
    direction -3.91456e-008 0.999999 0.00127422
    length 3.43865
    axis -0.00138896 0.000121452 2.39764e-006 xyz
  end
  begin
    id 10
    name HEad
    direction -0.0222688 0.980941 0.193023
    length 5.12695
    axis -0.00138895 0.000121452 2.39764e-006 xyz
    dof rx ry rz
  end
  begin
    id 11
    name LeftShoulder1Dummy
    direction 0.998891 -0.0402508 -0.0244456
    length 3.5433
    axis -0.00138896 0.000121452 2.39764e-006 xyz
  end
  begin
    id 12
    name LeftShoulder1
    direction 0.99951 -0.000327743 0.0313091
    length 4.05031
    axis -0.00138896 0.000121452 2.39764e-006 xyz
    dof rx ry rz
  end
  begin
    id 13
    name LeftArm
    direction 0.998561 -0.00100054 -0.0536182
    length 10.3537
    axis -23.1894 0.134784 0.96751 xyz
    dof rx ry rz
  end
  begin
    id 14
    name LeftForeArm
    direction 0.998903 0.00866434 0.046012
    length 8.70632
    axis -9.91835 -0.06569 -0.177792 xyz
    dof rx ry rz
  end
  begin
    id 15
    name LeftHand
    direction 0.992938 -0.0411636 0.11126
    length 5.32135
    axis -0.00960227 -0.00340091 0.185174 xyz
    dof rx ry rz
  end
  begin
    id 16
    name RightShoulderDummy
    direction -0.998891 -0.0402509 -0.0244414
    length 3.5433
    axis -0.00138896 0.000121452 2.39764e-006 xyz
  end
  begin
    id 17
    name RightShoulder
    direction -0.99951 -0.000327827 0.0313133
    length 4.05031
    axis 0.215806 0.000203644 -0.00680151 xyz
    dof rx ry rz
  end
  begin
    id 18
    name RightArm
    direction -0.998573 -0.000999583 -0.053403
    length 10.3947
    axis -23.2009 -0.134239 -0.9641 xyz
    dof rx ry rz
  end
  begin
    id 19
    name RightForeArm
    direction -0.998898 0.00868026 0.0461306
    length 8.68355
    axis -9.92322 0.0658061 0.178869 xyz
    dof rx ry rz
  end
  begin
    id 20
    name RightHand
    direction -0.992843 -0.0414603 0.112003
    length 5.28593
    axis -0.00960634 0.00330671 -0.185226 xyz
    dof rx ry rz
  end
  begin
    id 21
    name LeftUpLegDummy
    direction 0.718183 -0.695806 0.00816078
    length 4.904
    axis 0 0 0 xyz
  end
  begin
    id 22
    name LeftUpLeg
    direction -6.8115e-006 -0.995793 0.0916336
    length 17.4976
    axis -3.48766 0.00143441 -0.000523914 xyz
    dof rx ry rz
  end
  begin
    id 23
    name LeftLeg
    direction -0.00601357 -0.995091 -0.0987824
    length 16.5821
    axis 3.68177 -0.00654038 -0.00028478 xyz
    dof rx ry rz
  end
  begin
    id 24
    name LeftFoot
    direction -0.00417578 -0.460984 0.887399
    length 3.77069
    axis 1.87232e-006 4.66002e-005 -8.1837e-006 xyz
    dof rx ry rz
  end
  begin
    id 25
    name LeftToes
    direction 0.00818058 -0.00485161 0.999955
    length 3.85048
    axis 1.06246e-005 4.65855e-005 -8.18502e-006 xyz
    dof rx ry rz
  end
:hierarchy
  begin
    root RightUpLegDummy SpineDummy LeftUpLegDummy
    RightUpLegDummy RightUpLeg
    RightUpLeg RightLeg
    RightLeg RightFoot
    RightFoot RightToes
    SpineDummy Spine
    Spine Spine1
    Spine1 HEadDummy LeftShoulder1Dummy RightShoulderDummy
    HEadDummy HEad
    LeftShoulder1Dummy LeftShoulder1
    LeftShoulder1 LeftArm
    LeftArm LeftForeArm
    LeftForeArm LeftHand
    RightShoulderDummy RightShoulder
    RightShoulder RightArm
    RightArm RightForeArm
    RightForeArm RightHand
    LeftUpLegDummy LeftUpLeg
    LeftUpLeg LeftLeg
    LeftLeg LeftFoot
    LeftFoot LeftToes
  end

:SAMPLES-PER-SECOND 24
:FULLY-SPECIFIED
:DEGREES
1
root  1.49606 37.4742 30.382 176.602 -71.8209 178.225
RightUpLeg  -2.59995 -8.98293 -19.0937
RightLeg  32.3351 4.1089 2.56388
RightFoot  -13.8402 0.266981 16.4692
RightToes  -1.74623e-010 0 -2.59999e-017
Spine  4.05499 0.297185 -6.91699
Spine1  20.2143 -2.00843 3.66906
HEad  -25.7986 -40.8421 26.2811
LeftShoulder1  2.04002 -3.29736 -23.7571
LeftArm  23.3829 -16.8939 -54.1843
LeftForeArm  117.255 -77.1291 -125.92
LeftHand  0.149197 7.23963 10.8736
RightShoulder  3.32635 5.61204 30.5937
RightArm  -15.7244 -8.16057 31.4468
RightForeArm  -4.43749 23.6515 5.2855
RightHand  -1.04704 0.239738 -21.5118
LeftUpLeg  -5.77183 4.673 11.3221
LeftLeg  34.8829 -5.82664 -3.97739
LeftFoot  -19.4856 -0.85338 -13.569
LeftToes  -6.27559e-011 -2.10356e-011 8.24929e-012
2
root  1.15232 38.7841 30.4489 174.956 -67.1978 -179.089
RightUpLeg  -3.63559 -11.5983 -18.8832
RightLeg  28.6546 10.9228 6.17952
RightFoot  -3.10589 -1.21193 16.4569
RightToes  -1.74623e-010 0 -2.59999e-017
Spine  3.45837 0.920702 -5.90854
Spine1  18.2602 -1.14299 3.59587
HEad  -19.9655 -40.0205 22.521
LeftShoulder1  2.13155 -3.4014 -24.6752
LeftArm  22.9737 -4.2195 -54.5113
LeftForeArm  118.506 -76.9454 -127.085
LeftHand  0.0767391 6.36533 11.5491
RightShoulder  3.2354 5.53112 29.9025
RightArm  -18.514 -9.1593 35.4864
RightForeArm  -11.8881 24.7572 5.89052
RightHand  -1.22972 -1.25745 -34.369
LeftUpLeg  -1.38779 5.60168 11.5472
LeftLeg  26.6681 -2.72254 -1.14425
LeftFoot  -12.6562 -0.0998091 -15.4942
LeftToes  -6.27559e-011 -2.10356e-011 8.24929e-012
3
root  0.926559 39.9608 30.393 174.649 -63.491 -177.216
RightUpLeg  -5.70422 -15.3918 -18.1177
RightLeg  25.7691 15.7316 7.93834
RightFoot  7.23273 -2.55492 15.8541
RightToes  -1.74623e-010 0 -2.59999e-017
Spine  2.50297 1.11617 -5.54055
Spine1  16.8141 -0.738087 3.9119
HEad  -16.3491 -38.5836 21.2353
LeftShoulder1  2.15305 -3.64336 -23.8991
LeftArm  23.6566 4.42266 -54.7181
LeftForeArm  119.081 -76.9344 -127.28
LeftHand  -0.0520833 4.98116 10.66
RightShoulder  3.24844 5.46853 30.3057
RightArm  -16.7251 -11.1064 35.9998
RightForeArm  -6.3916 30.1163 6.90909
RightHand  -0.515328 -3.48159 -25.2276
LeftUpLeg  0.673859 5.38143 11.835
LeftLeg  20.6675 1.08595 0.811176
LeftFoot  -4.35953 0.989624 -15.8758
LeftToes  -6.27559e-011 -2.10356e-011 8.24929e-012
4
root  0.844138 40.5957 30.3941 174.701 -59.547 -176.545
RightUpLeg  -8.25275 -17.3635 -17.3219
RightLeg  24.063 12.4655 5.81962
RightFoot  9.81425 -2.63779 14.4217
RightToes  -1.74623e-010 0 -2.59999e-017
Spine  2.1127 1.07381 -4.68681
Spine1  17.2235 -0.352705 3.12211
HEad  -16.128 -36.2473 21.3384
LeftShoulder1  2.16269 -3.99796 -22.5328
LeftArm  23.963 7.32947 -54.3512
LeftForeArm  121.397 -77.2551 -126.418
LeftHand  -0.129855 3.86548 8.89147
RightShoulder  3.2153 5.3313 30.5011
RightArm  -17.962 -11.5682 35.6867
RightForeArm  6.88437 37.1384 8.082
RightHand  -0.0890113 -0.919755 -3.0199
LeftUpLeg  2.50852 3.36968 11.4831
LeftLeg  17.4322 1.77237 1.20365
LeftFoot  -0.696601 1.31754 -14.0581
LeftToes  -6.27559e-011 -2.10356e-011 8.24929e-012
5
root  0.75868 40.6365 30.5154 174.113 -54.9916 -175.928
RightUpLeg  -10.6796 -19.5484 -16.6695
RightLeg  22.1389 7.67326 3.214
RightFoot  8.59529 -2.14498 12.498
RightToes  -1.74623e-010 0 -2.59999e-017
Spine  2.6359 0.832808 -3.02526
Spine1  17.7118 -0.110222 2.02576
HEad  -16.4205 -33.4042 20.1516
LeftShoulder1  2.11111 -4.133 -21.2724
LeftArm  24.2519 6.76923 -53.8661
LeftForeArm  121.227 -77.6582 -124.419
LeftHand  -0.159612 3.7694 10.5802
RightShoulder  2.93306 4.98781 28.6059
RightArm  -16.8758 -9.89228 36.8623
RightForeArm  8.41181 43.3179 10.003
RightHand  0.410607 0.206358 8.52585
LeftUpLeg  5.14126 2.18201 11.2736
LeftLeg  16.1498 -1.83566 0.133929
LeftFoot  -2.55227 1.03722 -13.2514
LeftToes  -6.27559e-011 -2.10356e-011 8.24929e-012
